<svg width="31" height="31" viewBox="0 0 31 31" fill="none" xmlns="http://www.w3.org/2000/svg">
<circle cx="15.5" cy="15.2041" r="15" fill="black"/>
<path d="M16.8589 19.0567V17.394C16.8589 17.1684 17.0961 16.9857 17.3885 16.9857C18.4318 16.9857 18.9994 16.1606 19.0782 14.5318H17.3885C17.0961 14.5318 16.8589 14.3488 16.8589 14.1235V10.6127C16.8589 10.3872 17.0961 10.2044 17.3885 10.2044H21.8935C22.1858 10.2044 22.4231 10.3874 22.4231 10.6127V14.1235C22.4231 14.9042 22.3209 15.6206 22.1202 16.2534C21.9141 16.902 21.5977 17.4691 21.18 17.939C20.7504 18.4219 20.2125 18.8009 19.5823 19.0648C18.9474 19.3304 18.2092 19.4652 17.3882 19.4652C17.0961 19.465 16.8589 19.2821 16.8589 19.0567ZM10.0294 16.9855C9.73708 16.9855 9.5 17.1684 9.5 17.3937V19.0567C9.5 19.2821 9.73708 19.4648 10.0294 19.4648C10.85 19.4648 11.5885 19.33 12.2231 19.0645C12.8536 18.8006 13.3914 18.4219 13.8209 17.9387C14.2389 17.4688 14.5553 16.9017 14.7614 16.2527C14.9622 15.62 15.0642 14.9035 15.0642 14.1232V10.6123C15.0642 10.3868 14.8269 10.2041 14.5346 10.2041H10.0294C9.73708 10.2041 9.5 10.387 9.5 10.6123V14.1232C9.5 14.3487 9.73708 14.5315 10.0294 14.5315H11.6954C11.6176 16.1604 11.0582 16.9855 10.0294 16.9855Z" fill="white"/>
</svg>
