<?xml version="1.0" encoding="UTF-8"?>
<svg xmlns="http://www.w3.org/2000/svg" version="1.1" viewBox="0 0 32 32">
  <defs>
    <style>
      .cls-1 {
        fill: #fff;
      }
    </style>
  </defs>
  <!-- Generator: Adobe Illustrator 28.6.0, SVG Export Plug-In . SVG Version: 1.2.0 Build 709)  -->
  <g>
    <g id="Capa_1">
      <g>
        <path class="cls-1" d="M0,32C0,21.33,0,10.67,0,0,10.67,0,21.33,0,32,0c0,10.67,0,21.33,0,32-10.67,0-21.33,0-32,0ZM13.1,11.99v9.05h1.89v-3.58c.79.02,1.57,0,2.34.07.48.04.79.26.91.8.03.12.03.26.03.38,0,.71,0,1.43,0,2.14,0,.06,0,.13,0,.19h1.87c0-.94.02-1.88,0-2.81-.01-.56-.28-1.01-.75-1.32-.11-.08-.23-.14-.33-.2.23-.16.48-.29.69-.47.43-.37.6-.88.64-1.43.06-.7-.07-1.35-.55-1.89-.56-.63-1.29-.91-2.1-.92-1.5-.02-3.01,0-4.51-.01-.04,0-.08,0-.13,0ZM28.16,14.69s0-.08,0-.12c-.15-1.35-.97-2.28-2.21-2.65-.92-.28-1.85-.25-2.77,0-.61.17-1.13.49-1.53.98-.47.58-.6,1.25-.55,1.97.06.84.47,1.43,1.25,1.78.66.29,1.36.48,2.05.66.52.13,1.05.28,1.56.44.21.06.4.19.5.39.24.49.15,1.05-.43,1.32-.79.37-1.61.39-2.43.07-.34-.13-.59-.38-.73-.73-.07-.17-.09-.36-.14-.55h-1.82c.03.2.04.39.08.57.19.97.72,1.66,1.63,2.08.45.21.92.31,1.41.36.93.08,1.85.03,2.71-.36.72-.32,1.27-.81,1.52-1.58.14-.45.14-.91.08-1.36-.1-.73-.45-1.28-1.13-1.62-.68-.33-1.39-.51-2.12-.69-.57-.15-1.13-.3-1.69-.48-.28-.09-.49-.27-.54-.58-.06-.42.16-.86.53-1.08.46-.26.96-.25,1.45-.19.41.05.78.2,1.07.5.23.24.36.52.39.86h1.83ZM.4,16.99s.06.07.08.1c1.31,1.31,2.62,2.62,3.93,3.92.06.06.17.1.25.1,1.94,0,3.88,0,5.82,0,.05,0,.09,0,.17-.01-.37-.36-.71-.7-1.05-1.04-.98-.97-1.95-1.95-2.93-2.93-.09-.09-.19-.14-.32-.14-1.92,0-3.85,0-5.77,0-.05,0-.11,0-.19,0ZM7.03,10.39c-.03.09-.04.1-.04.12,0,1.99,0,3.97,0,5.96,0,.06.03.13.08.18.47.48.95.95,1.42,1.43.61.61,1.21,1.21,1.82,1.82.25.25.5.51.78.79,0-.09,0-.12,0-.16,0-1.95,0-3.9,0-5.86,0-.08-.05-.18-.11-.25-.45-.46-.92-.92-1.38-1.38-.68-.68-1.36-1.35-2.03-2.03-.18-.19-.35-.39-.56-.61ZM31.12,21.08v-9.05h-1.87v9.05h1.87Z"/>
        <path d="M13.1,11.99c.05,0,.09,0,.13,0,1.5,0,3.01-.01,4.51.01.82.01,1.55.29,2.1.92.48.54.6,1.19.55,1.89-.04.55-.22,1.06-.64,1.43-.21.18-.46.32-.69.47.1.06.21.12.33.2.47.31.73.76.75,1.32.02.93,0,1.86,0,2.81h-1.87c0-.06,0-.13,0-.19,0-.71,0-1.43,0-2.14,0-.13,0-.26-.03-.38-.12-.53-.43-.76-.91-.8-.77-.06-1.54-.05-2.34-.07v3.58h-1.89v-9.05ZM14.99,15.93c.82,0,1.63.04,2.44-.01.93-.06,1.39-1.02.92-1.83-.21-.36-.56-.5-.95-.51-.79-.03-1.58-.02-2.37-.02-.01,0-.03.01-.05.02v2.36Z"/>
        <path d="M28.16,14.69h-1.83c-.03-.33-.16-.62-.39-.86-.29-.3-.66-.45-1.07-.5-.5-.06-.99-.07-1.45.19-.37.21-.6.66-.53,1.08.05.32.26.5.54.58.56.18,1.13.33,1.69.48.72.19,1.44.36,2.12.69.69.33,1.03.89,1.13,1.62.06.46.07.92-.08,1.36-.25.78-.8,1.27-1.52,1.58-.87.38-1.78.44-2.71.36-.49-.04-.96-.15-1.41-.36-.9-.41-1.44-1.11-1.63-2.08-.04-.19-.05-.37-.08-.57h1.82c.04.18.07.37.14.55.13.35.38.6.73.73.82.31,1.64.3,2.43-.07.58-.27.67-.83.43-1.32-.1-.21-.29-.33-.5-.39-.52-.16-1.04-.3-1.56-.44-.7-.18-1.39-.37-2.05-.66-.78-.34-1.19-.94-1.25-1.78-.06-.72.08-1.4.55-1.97.4-.49.92-.82,1.53-.98.92-.25,1.85-.28,2.77,0,1.24.38,2.06,1.31,2.21,2.65,0,.04,0,.08,0,.12Z"/>
        <path d="M.4,16.99c.08,0,.14,0,.19,0,1.92,0,3.85,0,5.77,0,.14,0,.23.04.32.14.97.98,1.95,1.95,2.93,2.93.34.34.68.68,1.05,1.04-.08,0-.13.01-.17.01-1.94,0-3.88,0-5.82,0-.08,0-.19-.04-.25-.1-1.31-1.3-2.62-2.61-3.93-3.92-.02-.02-.04-.05-.08-.1Z"/>
        <path d="M7.03,10.39c.2.22.37.42.56.61.67.68,1.35,1.36,2.03,2.03.46.46.92.92,1.38,1.38.06.06.11.16.11.25,0,1.95,0,3.9,0,5.86,0,.04,0,.07,0,.16-.28-.28-.53-.54-.78-.79-.61-.61-1.21-1.21-1.82-1.82-.48-.48-.95-.95-1.42-1.43-.04-.04-.08-.12-.08-.18,0-1.99,0-3.97,0-5.96,0-.01,0-.03.04-.12Z"/>
        <path d="M31.12,21.08h-1.87v-9.05h1.87v9.05Z"/>
        <path class="cls-1" d="M14.99,15.93v-2.36s.03-.02.05-.02c.79,0,1.58,0,2.37.02.38.01.74.15.95.51.47.82,0,1.77-.92,1.83-.8.05-1.61.01-2.44.01Z"/>
      </g>
    </g>
  </g>
</svg>